<svg width="22" height="22" viewBox="0 0 22 22" fill="none" xmlns="http://www.w3.org/2000/svg">
<path d="M17.7259 14.677C18.0212 14.3966 18.2563 14.059 18.417 13.6849C18.5776 13.3107 18.6606 12.9078 18.6606 12.5006C18.6606 12.0934 18.5776 11.6904 18.417 11.3163C18.2563 10.9421 18.0212 10.6046 17.7259 10.3241C17.1215 9.75048 16.3199 9.43066 15.4866 9.43066C14.6533 9.43066 13.8517 9.75048 13.2473 10.3241L11.0002 12.5713L8.75304 10.3241C8.1486 9.75048 7.34706 9.43066 6.51375 9.43066C5.68042 9.43066 4.87889 9.75048 4.27447 10.3241C3.97918 10.6046 3.74406 10.9421 3.58338 11.3163C3.42271 11.6904 3.33984 12.0934 3.33984 12.5006C3.33984 12.9078 3.42271 13.3107 3.58338 13.6849C3.74406 14.059 3.97918 14.3966 4.27447 14.677L11.0002 21.2141L17.7259 14.677Z" stroke="white" stroke-linecap="round" stroke-linejoin="round"/>
<path d="M11.0003 7.07136C12.736 7.07136 14.1431 5.66425 14.1431 3.9285C14.1431 2.19275 12.736 0.785645 11.0003 0.785645C9.26453 0.785645 7.85742 2.19275 7.85742 3.9285C7.85742 5.66425 9.26453 7.07136 11.0003 7.07136Z" stroke="white" stroke-linecap="round" stroke-linejoin="round"/>
</svg>
